<svg width="297" height="224" viewBox="0 0 297 224" fill="none" xmlns="http://www.w3.org/2000/svg">
<path d="M82.1475 14.998L77.3159 13.7112L77.3025 13.7613L77.2902 13.8118L82.1475 14.998ZM107.645 13.1543L112.231 11.1639L112.231 11.1636L107.645 13.1543ZM117.725 36.3828L113.138 38.3732L113.179 38.4687L113.225 38.5623L117.725 36.3828ZM128.647 58.9346L133.167 56.7969L133.158 56.7759L133.147 56.755L128.647 58.9346ZM129.228 60.1611L133.771 58.0731L133.759 58.0482L133.748 58.0235L129.228 60.1611ZM130.485 63.0869L125.848 64.9567L128.542 71.6381L133.859 66.7772L130.485 63.0869ZM142.574 52.0352L145.948 55.7254L145.976 55.6993L146.005 55.6728L142.574 52.0352ZM142.917 51.7119L146.347 55.3496L146.377 55.3212L146.407 55.2923L142.917 51.7119ZM146.611 45.8193L141.882 44.1962L141.875 44.2171L141.868 44.2381L146.611 45.8193ZM146.747 45.4238L142.036 43.7481L142.027 43.7743L142.018 43.8007L146.747 45.4238ZM168.498 31.6396L168.498 26.6396H168.498V31.6396ZM187.479 46.5684L182.619 47.7466L182.628 47.7839L182.638 47.8211L187.479 46.5684ZM187.579 46.957L182.739 48.2097L182.747 48.2442L182.757 48.2785L187.579 46.957ZM190.366 52.2002L186.574 55.459L186.574 55.4593L190.366 52.2002ZM192.553 54.7441L188.761 58.0032L192.318 62.142L196.13 58.237L192.553 54.7441ZM195.285 52.0996L198.659 55.7897L198.659 55.7897L195.285 52.0996ZM209.574 39.0352L212.948 42.7253L212.977 42.6993L213.005 42.6728L209.574 39.0352ZM209.917 38.7119L213.347 42.3496L213.377 42.3212L213.407 42.2923L209.917 38.7119ZM213.611 32.8193L208.882 31.1962L208.875 31.2171L208.868 31.2381L213.611 32.8193ZM213.747 32.4238L209.036 30.7481L209.027 30.7743L209.018 30.8007L213.747 32.4238ZM235.498 18.6396L235.498 13.6396H235.498V18.6396ZM254.479 33.5684L249.619 34.7466L249.628 34.7839L249.638 34.8211L254.479 33.5684ZM254.579 33.957L249.739 35.2097L249.747 35.2442L249.757 35.2785L254.579 33.957ZM257.366 39.2002L253.574 42.459L253.574 42.4592L257.366 39.2002ZM269.775 53.6387L273.597 50.4143L273.582 50.3969L273.567 50.3797L269.775 53.6387ZM270.566 54.5762L274.418 51.3873L274.403 51.3695L274.388 51.3518L270.566 54.5762ZM285.416 88.7812L280.457 89.4176L280.457 89.4176L285.416 88.7812ZM291.449 135.803L296.413 135.199L296.411 135.183L296.409 135.166L291.449 135.803ZM291.555 136.67L296.522 136.102L296.52 136.084L296.518 136.066L291.555 136.67ZM206.328 200.968L208.239 196.347L205.188 195.085L202.829 197.396L206.328 200.968ZM116.986 198.17L120.7 194.822L118 191.826L114.5 193.832L116.986 198.17ZM39.0918 137.697L43.6546 139.742L43.6546 139.742L39.0918 137.697ZM49.9668 113.429L54.5296 115.473L54.5449 115.439L54.5598 115.405L49.9668 113.429ZM50.2559 112.757L54.8488 114.733L54.8644 114.697L54.8795 114.66L50.2559 112.757ZM31.9229 81.3945L32.5334 76.4319L32.4951 76.4272L32.4567 76.4231L31.9229 81.3945ZM31.1953 81.3164L31.7292 76.345L31.691 76.3409L31.6528 76.3374L31.1953 81.3164ZM27.2188 80.668L26.024 85.5231L26.0478 85.529L26.0717 85.5346L27.2188 80.668ZM26.6592 80.5303L25.4151 85.373L25.4397 85.3794L25.4645 85.3854L26.6592 80.5303ZM14.6016 77.4326L13.3573 82.2753L13.3574 82.2754L14.6016 77.4326ZM5 65.0527L0 65.0526V65.0527H5ZM13.5146 53.0039L11.8454 48.2908L11.8453 48.2908L13.5146 53.0039ZM34.1504 45.6953L35.8196 50.4084L35.85 50.3977L35.8803 50.3865L34.1504 45.6953ZM34.4629 45.5801L36.1928 50.2713L36.2311 50.2572L36.2692 50.2424L34.4629 45.5801ZM41.1904 38.4258L36.4531 36.8266L36.4393 36.8675L36.4262 36.9086L41.1904 38.4258ZM41.3721 37.8877L36.6597 36.2162L36.6469 36.2523L36.6347 36.2885L41.3721 37.8877ZM53.6387 26.8154L52.457 21.9571L52.4568 21.9571L53.6387 26.8154ZM76.4238 21.2734L77.6055 26.1318L77.651 26.1207L77.6963 26.1088L76.4238 21.2734ZM76.6836 21.2051L77.9561 26.0405L77.9966 26.0298L78.037 26.0184L76.6836 21.2051ZM82.0029 15.5898L77.1457 14.4036L77.1341 14.4509L77.1235 14.4984L82.0029 15.5898ZM82.1475 14.998L86.979 16.2849C89.034 8.56951 99.8233 7.69218 103.058 15.145L107.645 13.1543L112.231 11.1636C105.189 -5.063 81.7878 -3.07848 77.3159 13.7112L82.1475 14.998ZM107.645 13.1543L103.058 15.1447L113.138 38.3732L117.725 36.3828L122.311 34.3924L112.231 11.1639L107.645 13.1543ZM117.725 36.3828L113.225 38.5623L124.148 61.1141L128.647 58.9346L133.147 56.755L122.225 34.2033L117.725 36.3828ZM128.647 58.9346L124.127 61.0722L124.708 62.2988L129.228 60.1611L133.748 58.0235L133.167 56.7969L128.647 58.9346ZM129.228 60.1611L124.684 62.2492C125.091 63.1335 125.477 64.0363 125.848 64.9567L130.485 63.0869L135.123 61.2172C134.7 60.1695 134.252 59.1195 133.771 58.0731L129.228 60.1611ZM130.485 63.0869L133.859 66.7772L145.948 55.7254L142.574 52.0352L139.201 48.3449L127.112 59.3966L130.485 63.0869ZM142.574 52.0352L146.005 55.6728L146.347 55.3496L142.917 51.7119L139.487 48.0743L139.144 48.3975L142.574 52.0352ZM142.917 51.7119L146.407 55.2923C148.66 53.0965 150.358 50.3913 151.355 47.4006L146.611 45.8193L141.868 44.2381C141.376 45.7131 140.539 47.0479 139.427 48.1315L142.917 51.7119ZM146.611 45.8193L151.341 47.4425L151.476 47.0469L146.747 45.4238L142.018 43.8007L141.882 44.1962L146.611 45.8193ZM146.747 45.4238L151.458 47.0996C153.685 40.8398 159.617 36.6396 166.284 36.6396V31.6396V26.6396C155.379 26.6396 145.679 33.5084 142.036 43.7481L146.747 45.4238ZM166.284 31.6396V36.6396H168.498V31.6396V26.6396H166.284V31.6396ZM168.498 31.6396L168.498 36.6396C175.204 36.6397 181.039 41.2292 182.619 47.7466L187.479 46.5684L192.338 45.3902C189.67 34.3879 179.82 26.6397 168.498 26.6396L168.498 31.6396ZM187.479 46.5684L182.638 47.8211L182.739 48.2097L187.579 46.957L192.42 45.7043L192.319 45.3157L187.479 46.5684ZM187.579 46.957L182.757 48.2785C183.481 50.9217 184.784 53.3754 186.574 55.459L190.366 52.2002L194.158 48.9414C193.335 47.9834 192.735 46.8538 192.401 45.6356L187.579 46.957ZM190.366 52.2002L186.574 55.4593L188.761 58.0032L192.553 54.7441L196.345 51.485L194.158 48.9411L190.366 52.2002ZM192.553 54.7441L196.13 58.237C196.948 57.3993 197.791 56.5831 198.659 55.7897L195.285 52.0996L191.911 48.4095C190.903 49.3311 189.924 50.2789 188.975 51.2513L192.553 54.7441ZM195.285 52.0996L198.659 55.7897L212.948 42.7253L209.574 39.0352L206.2 35.345L191.911 48.4095L195.285 52.0996ZM209.574 39.0352L213.005 42.6728L213.347 42.3496L209.917 38.7119L206.487 35.0743L206.144 35.3975L209.574 39.0352ZM209.917 38.7119L213.407 42.2923C215.66 40.0965 217.358 37.3913 218.355 34.4006L213.611 32.8193L208.868 31.2381C208.376 32.7131 207.539 34.0479 206.427 35.1315L209.917 38.7119ZM213.611 32.8193L218.341 34.4425L218.476 34.0469L213.747 32.4238L209.018 30.8007L208.882 31.1962L213.611 32.8193ZM213.747 32.4238L218.458 34.0996C220.685 27.8398 226.617 23.6396 233.284 23.6396V18.6396V13.6396C222.379 13.6396 212.679 20.5084 209.036 30.7481L213.747 32.4238ZM233.284 18.6396V23.6396H235.498V18.6396V13.6396H233.284V18.6396ZM235.498 18.6396L235.498 23.6396C242.204 23.6397 248.039 28.2292 249.619 34.7466L254.479 33.5684L259.338 32.3902C256.67 21.3879 246.82 13.6397 235.498 13.6396L235.498 18.6396ZM254.479 33.5684L249.638 34.8211L249.739 35.2097L254.579 33.957L259.42 32.7043L259.319 32.3157L254.479 33.5684ZM254.579 33.957L249.757 35.2785C250.481 37.9217 251.784 40.3754 253.574 42.459L257.366 39.2002L261.158 35.9414C260.335 34.9834 259.735 33.8538 259.401 32.6356L254.579 33.957ZM257.366 39.2002L253.574 42.4592L265.983 56.8977L269.775 53.6387L273.567 50.3797L261.158 35.9412L257.366 39.2002ZM269.775 53.6387L265.954 56.863L266.745 57.8005L270.566 54.5762L274.388 51.3518L273.597 50.4143L269.775 53.6387ZM270.566 54.5762L266.715 57.7651C274.194 66.7963 278.962 77.7715 280.457 89.4176L285.416 88.7812L290.375 88.1449C288.64 74.6209 283.102 61.8757 274.418 51.3873L270.566 54.5762ZM285.416 88.7812L280.457 89.4176L286.49 136.439L291.449 135.803L296.409 135.166L290.375 88.1449L285.416 88.7812ZM291.449 135.803L286.486 136.406L286.591 137.274L291.555 136.67L296.518 136.066L296.413 135.199L291.449 135.803ZM291.555 136.67L286.587 137.238C290.444 170.96 264.063 200.64 230 200.64V205.64V210.64C270.045 210.64 301.057 175.749 296.522 136.102L291.555 136.67ZM230 205.64V200.64C222.248 200.64 214.91 199.106 208.239 196.347L206.328 200.968L204.417 205.588C212.281 208.84 220.916 210.64 230 210.64V205.64ZM206.328 200.968L202.829 197.396C192.611 207.406 178.622 213.64 163 213.64V218.64V223.64C181.354 223.64 197.824 216.299 209.827 204.539L206.328 200.968ZM163 218.64V213.64C146.082 213.64 131.072 206.329 120.7 194.822L116.986 198.17L113.272 201.518C125.449 215.027 143.117 223.64 163 223.64V218.64ZM116.986 198.17L114.5 193.832C107.519 197.833 99.4114 200.14 90.6846 200.14V205.14V210.14C101.202 210.14 111.019 207.353 119.473 202.508L116.986 198.17ZM90.6846 205.14V200.14H82.7734V205.14V210.14H90.6846V205.14ZM82.7734 205.14V200.14C51.6952 200.14 30.9454 168.103 43.6546 139.742L39.0918 137.697L34.529 135.653C18.855 170.629 44.4453 210.14 82.7734 210.14V205.14ZM39.0918 137.697L43.6546 139.742L54.5296 115.473L49.9668 113.429L45.404 111.384L34.529 135.653L39.0918 137.697ZM49.9668 113.429L54.5598 115.405L54.8488 114.733L50.2559 112.757L45.6629 110.781L45.3738 111.453L49.9668 113.429ZM50.2559 112.757L54.8795 114.66C61.8656 97.6882 50.7494 78.673 32.5334 76.4319L31.9229 81.3945L31.3123 86.3571C42.9773 87.7922 50.1053 99.987 45.6323 110.854L50.2559 112.757ZM31.9229 81.3945L32.4567 76.4231L31.7292 76.345L31.1953 81.3164L30.6615 86.2878L31.389 86.366L31.9229 81.3945ZM31.1953 81.3164L31.6528 76.3374C30.5468 76.2357 29.4483 76.0565 28.3658 75.8013L27.2188 80.668L26.0717 85.5346C27.6063 85.8963 29.1655 86.151 30.7378 86.2954L31.1953 81.3164ZM27.2188 80.668L28.4135 75.8128L27.8539 75.6751L26.6592 80.5303L25.4645 85.3854L26.024 85.5231L27.2188 80.668ZM26.6592 80.5303L27.9033 75.6875L15.8457 72.5899L14.6016 77.4326L13.3574 82.2754L25.4151 85.373L26.6592 80.5303ZM14.6016 77.4326L15.8458 72.5899C12.4052 71.7059 10 68.6047 10 65.0527H5H0C0 73.1695 5.49634 80.2556 13.3573 82.2753L14.6016 77.4326ZM5 65.0527L10 65.0529C10.0001 61.7564 12.077 58.8175 15.184 57.717L13.5146 53.0039L11.8453 48.2908C4.74537 50.8055 0.000218709 57.5209 2.10802e-09 65.0526L5 65.0527ZM13.5146 53.0039L15.1839 57.717L35.8196 50.4084L34.1504 45.6953L32.4811 40.9822L11.8454 48.2908L13.5146 53.0039ZM34.1504 45.6953L35.8803 50.3865L36.1928 50.2713L34.4629 45.5801L32.733 40.8889L32.4205 41.0041L34.1504 45.6953ZM34.4629 45.5801L36.2692 50.2424C40.8824 48.4551 44.4486 44.6722 45.9547 39.943L41.1904 38.4258L36.4262 36.9086C35.8398 38.75 34.4512 40.2225 32.6566 40.9178L34.4629 45.5801ZM41.1904 38.4258L45.9278 40.025L46.1094 39.4869L41.3721 37.8877L36.6347 36.2885L36.4531 36.8266L41.1904 38.4258ZM41.3721 37.8877L46.0844 39.5592C47.4766 35.6343 50.7569 32.6622 54.8205 31.6738L53.6387 26.8154L52.4568 21.9571C45.1076 23.7449 39.1771 29.1191 36.6597 36.2162L41.3721 37.8877ZM53.6387 26.8154L54.8204 31.6738L77.6055 26.1318L76.4238 21.2734L75.2421 16.4151L52.457 21.9571L53.6387 26.8154ZM76.4238 21.2734L77.6963 26.1088L77.9561 26.0405L76.6836 21.2051L75.4111 16.3697L75.1514 16.4381L76.4238 21.2734ZM76.6836 21.2051L78.037 26.0184C82.4661 24.7731 85.8727 21.1949 86.8823 16.6813L82.0029 15.5898L77.1235 14.4984C76.9189 15.413 76.2281 16.1393 75.3302 16.3917L76.6836 21.2051ZM82.0029 15.5898L86.8602 16.7761L87.0047 16.1843L82.1475 14.998L77.2902 13.8118L77.1457 14.4036L82.0029 15.5898Z" fill="white"/>
<mask id="path-2-outside-1_671_21" maskUnits="userSpaceOnUse" x="69" y="93" width="200" height="68" fill="black">
<rect fill="white" x="69" y="93" width="200" height="68"/>
<path d="M84.375 132.5V126.062H91.5938C93.6562 126.062 95.3125 125.333 96.5625 123.875C97.8125 122.396 98.4375 120.469 98.4375 118.094C98.4375 115.844 97.8021 114.062 96.5312 112.75C95.2812 111.417 93.5521 110.75 91.3438 110.75H84.375V103.938H92.5C95.1042 103.938 97.4167 104.479 99.4375 105.562C101.479 106.646 103.073 108.198 104.219 110.219C105.365 112.219 105.938 114.604 105.938 117.375C105.938 120.25 105.312 122.833 104.062 125.125C102.812 127.396 101.042 129.198 98.75 130.531C96.4583 131.844 93.7604 132.5 90.6562 132.5H84.375ZM79.125 150V103.938H86.6562V150H79.125ZM100.469 150L91.0938 131.344L96.5625 126.844L108.781 150H100.469ZM110.562 150L126.031 103.938H133.188L148.625 150H140.781L136.688 137.062L136.062 134.25L129.719 113.875H129.469L123.156 134.25L122.5 137.062L118.438 150H110.562ZM119.031 139.094V132.562H140.156V139.094H119.031ZM176.781 150L168.188 132.719H167.906L162.906 127.031V126.812L150.812 103.938H159.469L168.031 121.656H168.25L173.281 126.844V127.062L185.562 150H176.781ZM150.594 150L162.906 127.062V126.844L167.906 121.656H168.188L176.656 103.938H185.344L173.281 126.812V127.031L168.25 132.719H168.031L159.344 150H150.594ZM202.281 150.5C200.469 150.5 198.688 150.208 196.938 149.625C195.188 149.042 193.562 148.271 192.062 147.312C190.583 146.354 189.323 145.312 188.281 144.188L191.375 136.844C192.208 137.99 193.188 139.062 194.312 140.062C195.458 141.062 196.677 141.875 197.969 142.5C199.26 143.104 200.573 143.406 201.906 143.406C203.135 143.406 204.229 143.125 205.188 142.562C206.146 142 206.896 141.229 207.438 140.25C208 139.271 208.281 138.177 208.281 136.969C208.281 135.74 207.979 134.677 207.375 133.781C206.771 132.865 205.896 132.052 204.75 131.344C203.625 130.635 202.24 129.979 200.594 129.375C198.51 128.562 196.604 127.542 194.875 126.312C193.167 125.062 191.812 123.573 190.812 121.844C189.812 120.094 189.312 118.073 189.312 115.781C189.312 113.344 189.865 111.198 190.969 109.344C192.094 107.49 193.625 106.042 195.562 105C197.521 103.958 199.729 103.438 202.188 103.438C204.417 103.438 206.615 103.906 208.781 104.844C210.948 105.781 212.802 107.073 214.344 108.719L211.531 115.531C210.802 114.573 209.927 113.719 208.906 112.969C207.906 112.219 206.844 111.625 205.719 111.188C204.615 110.75 203.531 110.531 202.469 110.531C200.823 110.531 199.469 111.052 198.406 112.094C197.344 113.135 196.812 114.438 196.812 116C196.812 117.771 197.458 119.229 198.75 120.375C200.062 121.521 201.906 122.552 204.281 123.469C206.344 124.24 208.24 125.208 209.969 126.375C211.719 127.521 213.125 128.958 214.188 130.688C215.25 132.417 215.781 134.531 215.781 137.031C215.781 139.74 215.177 142.104 213.969 144.125C212.76 146.125 211.135 147.688 209.094 148.812C207.052 149.938 204.781 150.5 202.281 150.5ZM231.406 150V131.031L217.906 103.938H226.562L231.062 114.406L235.125 123.656H235.344L239.344 114.406L243.875 103.938H252.531L238.969 131.031V150H231.406Z"/>
</mask>
<path d="M84.375 132.5H74.375V142.5H84.375V132.5ZM84.375 126.062V116.062H74.375V126.062H84.375ZM96.5625 123.875L104.155 130.383L104.178 130.356L104.2 130.33L96.5625 123.875ZM96.5312 112.75L89.2359 119.589L89.291 119.648L89.3471 119.706L96.5312 112.75ZM84.375 110.75H74.375V120.75H84.375V110.75ZM84.375 103.938V93.9375H74.375V103.938H84.375ZM99.4375 105.562L94.7128 114.376L94.7315 114.386L94.7503 114.396L99.4375 105.562ZM104.219 110.219L95.5198 115.151L95.5308 115.171L95.5419 115.19L104.219 110.219ZM104.062 125.125L112.823 129.947L112.832 129.93L112.841 129.914L104.062 125.125ZM98.75 130.531L103.72 139.209L103.749 139.192L103.779 139.175L98.75 130.531ZM79.125 150H69.125V160H79.125V150ZM79.125 103.938V93.9375H69.125V103.938H79.125ZM86.6562 103.938H96.6562V93.9375H86.6562V103.938ZM86.6562 150V160H96.6562V150H86.6562ZM100.469 150L91.5335 154.49L94.3023 160H100.469V150ZM91.0938 131.344L84.7398 123.622L78.5721 128.697L82.1585 135.834L91.0938 131.344ZM96.5625 126.844L105.407 122.177L99.6816 111.327L90.2085 119.122L96.5625 126.844ZM108.781 150V160H125.365L117.626 145.333L108.781 150ZM84.375 132.5H94.375V126.062H84.375H74.375V132.5H84.375ZM84.375 126.062V136.062H91.5938V126.062V116.062H84.375V126.062ZM91.5938 126.062V136.062C96.331 136.062 100.852 134.237 104.155 130.383L96.5625 123.875L88.9699 117.367C89.2585 117.03 89.7273 116.639 90.3535 116.363C90.9608 116.096 91.4309 116.062 91.5938 116.062V126.062ZM96.5625 123.875L104.2 130.33C107.299 126.663 108.438 122.277 108.438 118.094H98.4375H88.4375C88.4375 118.41 88.3957 118.423 88.4565 118.235C88.4872 118.141 88.5392 118.01 88.6224 117.859C88.706 117.707 88.8081 117.558 88.9246 117.42L96.5625 123.875ZM98.4375 118.094H108.438C108.438 113.882 107.19 109.383 103.715 105.794L96.5312 112.75L89.3471 119.706C88.9543 119.3 88.6869 118.836 88.5423 118.43C88.4101 118.06 88.4375 117.902 88.4375 118.094H98.4375ZM96.5312 112.75L103.827 105.911C100.299 102.148 95.6949 100.75 91.3438 100.75V110.75V120.75C91.4481 120.75 91.1796 120.766 90.6996 120.581C90.18 120.38 89.6552 120.037 89.2359 119.589L96.5312 112.75ZM91.3438 110.75V100.75H84.375V110.75V120.75H91.3438V110.75ZM84.375 110.75H94.375V103.938H84.375H74.375V110.75H84.375ZM84.375 103.938V113.938H92.5V103.938V93.9375H84.375V103.938ZM92.5 103.938V113.938C93.6819 113.938 94.3322 114.172 94.7128 114.376L99.4375 105.562L104.162 96.7491C100.501 94.7864 96.5264 93.9375 92.5 93.9375V103.938ZM99.4375 105.562L94.7503 114.396C95.1017 114.582 95.3077 114.777 95.5198 115.151L104.219 110.219L112.918 105.286C110.838 101.619 107.857 98.7093 104.125 96.729L99.4375 105.562ZM104.219 110.219L95.5419 115.19C95.6609 115.398 95.9375 115.996 95.9375 117.375H105.938H115.938C115.938 113.213 115.068 109.04 112.896 105.248L104.219 110.219ZM105.938 117.375H95.9375C95.9375 118.75 95.6533 119.659 95.2835 120.336L104.062 125.125L112.841 129.914C114.972 126.008 115.938 121.75 115.938 117.375H105.938ZM104.062 125.125L95.302 120.303C94.9472 120.947 94.4831 121.444 93.7211 121.888L98.75 130.531L103.779 139.175C107.6 136.951 110.678 133.844 112.823 129.947L104.062 125.125ZM98.75 130.531L93.7801 121.854C93.2479 122.158 92.3247 122.5 90.6562 122.5V132.5V142.5C95.1961 142.5 99.6687 141.529 103.72 139.209L98.75 130.531ZM90.6562 132.5V122.5H84.375V132.5V142.5H90.6562V132.5ZM79.125 150H89.125V103.938H79.125H69.125V150H79.125ZM79.125 103.938V113.938H86.6562V103.938V93.9375H79.125V103.938ZM86.6562 103.938H76.6562V150H86.6562H96.6562V103.938H86.6562ZM86.6562 150V140H79.125V150V160H86.6562V150ZM100.469 150L109.404 145.51L100.029 126.854L91.0938 131.344L82.1585 135.834L91.5335 154.49L100.469 150ZM91.0938 131.344L97.4477 139.066L102.916 134.566L96.5625 126.844L90.2085 119.122L84.7398 123.622L91.0938 131.344ZM96.5625 126.844L87.7182 131.511L99.937 154.667L108.781 150L117.626 145.333L105.407 122.177L96.5625 126.844ZM108.781 150V140H100.469V150V160H108.781V150ZM110.562 150L101.083 146.817L96.6555 160H110.562V150ZM126.031 103.938V93.9375H118.841L116.552 100.754L126.031 103.938ZM133.188 103.938L142.669 100.76L140.383 93.9375H133.188V103.938ZM148.625 150V160H162.523L158.107 146.822L148.625 150ZM140.781 150L131.247 153.017L133.457 160H140.781V150ZM136.688 137.062L126.926 139.232L127.021 139.661L127.153 140.079L136.688 137.062ZM136.062 134.25L145.824 132.081L145.734 131.675L145.61 131.277L136.062 134.25ZM129.719 113.875L139.267 110.902L137.079 103.875H129.719V113.875ZM129.469 113.875V103.875H122.098L119.917 110.916L129.469 113.875ZM123.156 134.25L113.604 131.291L113.499 131.631L113.418 131.978L123.156 134.25ZM122.5 137.062L132.041 140.058L132.153 139.7L132.238 139.335L122.5 137.062ZM118.438 150V160H125.779L127.978 152.996L118.438 150ZM119.031 139.094H109.031V149.094H119.031V139.094ZM119.031 132.562V122.562H109.031V132.562H119.031ZM140.156 132.562H150.156V122.562H140.156V132.562ZM140.156 139.094V149.094H150.156V139.094H140.156ZM110.562 150L120.042 153.183L135.511 107.121L126.031 103.938L116.552 100.754L101.083 146.817L110.562 150ZM126.031 103.938V113.938H133.188V103.938V93.9375H126.031V103.938ZM133.188 103.938L123.706 107.115L139.143 153.178L148.625 150L158.107 146.822L142.669 100.76L133.188 103.938ZM148.625 150V140H140.781V150V160H148.625V150ZM140.781 150L150.315 146.983L146.222 134.046L136.688 137.062L127.153 140.079L131.247 153.017L140.781 150ZM136.688 137.062L146.449 134.893L145.824 132.081L136.062 134.25L126.301 136.419L126.926 139.232L136.688 137.062ZM136.062 134.25L145.61 131.277L139.267 110.902L129.719 113.875L120.171 116.848L126.515 137.223L136.062 134.25ZM129.719 113.875V103.875H129.469V113.875V123.875H129.719V113.875ZM129.469 113.875L119.917 110.916L113.604 131.291L123.156 134.25L132.708 137.209L139.021 116.834L129.469 113.875ZM123.156 134.25L113.418 131.978L112.762 134.79L122.5 137.062L132.238 139.335L132.895 136.522L123.156 134.25ZM122.5 137.062L112.959 134.067L108.897 147.004L118.438 150L127.978 152.996L132.041 140.058L122.5 137.062ZM118.438 150V140H110.562V150V160H118.438V150ZM119.031 139.094H129.031V132.562H119.031H109.031V139.094H119.031ZM119.031 132.562V142.562H140.156V132.562V122.562H119.031V132.562ZM140.156 132.562H130.156V139.094H140.156H150.156V132.562H140.156ZM140.156 139.094V129.094H119.031V139.094V149.094H140.156V139.094ZM176.781 150L167.827 154.453L170.586 160H176.781V150ZM168.188 132.719L177.141 128.266L174.383 122.719H168.188V132.719ZM167.906 132.719L160.396 139.321L163.383 142.719H167.906V132.719ZM162.906 127.031H152.906V130.802L155.396 133.634L162.906 127.031ZM162.906 126.812H172.906V124.332L171.747 122.139L162.906 126.812ZM150.812 103.938V93.9375H134.214L141.972 108.611L150.812 103.938ZM159.469 103.938L168.473 99.5865L165.743 93.9375H159.469V103.938ZM168.031 121.656L159.027 126.007L161.757 131.656H168.031V121.656ZM168.25 121.656L175.428 114.694L172.482 111.656H168.25V121.656ZM173.281 126.844H183.281V122.791L180.46 119.882L173.281 126.844ZM173.281 127.062H163.281V129.571L164.465 131.783L173.281 127.062ZM185.562 150V160H202.26L194.378 145.28L185.562 150ZM150.594 150L141.783 145.27L133.876 160H150.594V150ZM162.906 127.062L171.717 131.792L172.906 129.577V127.062H162.906ZM162.906 126.844L155.706 119.904L152.906 122.809V126.844H162.906ZM167.906 121.656V111.656H163.656L160.706 114.716L167.906 121.656ZM168.188 121.656V131.656H174.491L177.21 125.969L168.188 121.656ZM176.656 103.938V93.9375H170.352L167.634 99.6252L176.656 103.938ZM185.344 103.938L194.189 108.602L201.922 93.9375H185.344V103.938ZM173.281 126.812L164.436 122.148L163.281 124.337V126.812H173.281ZM173.281 127.031L180.771 133.657L183.281 130.82V127.031H173.281ZM168.25 132.719V142.719H172.755L175.74 139.344L168.25 132.719ZM168.031 132.719V122.719H161.866L159.097 128.227L168.031 132.719ZM159.344 150V160H165.509L168.278 154.492L159.344 150ZM176.781 150L185.735 145.547L177.141 128.266L168.188 132.719L159.234 137.171L167.827 154.453L176.781 150ZM168.188 132.719V122.719H167.906V132.719V142.719H168.188V132.719ZM167.906 132.719L175.417 126.116L170.417 120.429L162.906 127.031L155.396 133.634L160.396 139.321L167.906 132.719ZM162.906 127.031H172.906V126.812H162.906H152.906V127.031H162.906ZM162.906 126.812L171.747 122.139L159.653 99.2636L150.812 103.938L141.972 108.611L154.066 131.486L162.906 126.812ZM150.812 103.938V113.938H159.469V103.938V93.9375H150.812V103.938ZM159.469 103.938L150.465 108.289L159.027 126.007L168.031 121.656L177.035 117.305L168.473 99.5865L159.469 103.938ZM168.031 121.656V131.656H168.25V121.656V111.656H168.031V121.656ZM168.25 121.656L161.072 128.618L166.103 133.806L173.281 126.844L180.46 119.882L175.428 114.694L168.25 121.656ZM173.281 126.844H163.281V127.062H173.281H183.281V126.844H173.281ZM173.281 127.062L164.465 131.783L176.747 154.72L185.562 150L194.378 145.28L182.097 122.342L173.281 127.062ZM185.562 150V140H176.781V150V160H185.562V150ZM150.594 150L159.405 154.73L171.717 131.792L162.906 127.062L154.095 122.333L141.783 145.27L150.594 150ZM162.906 127.062H172.906V126.844H162.906H152.906V127.062H162.906ZM162.906 126.844L170.106 133.784L175.106 128.596L167.906 121.656L160.706 114.716L155.706 119.904L162.906 126.844ZM167.906 121.656V131.656H168.188V121.656V111.656H167.906V121.656ZM168.188 121.656L177.21 125.969L185.679 108.25L176.656 103.938L167.634 99.6252L159.165 117.344L168.188 121.656ZM176.656 103.938V113.938H185.344V103.938V93.9375H176.656V103.938ZM185.344 103.938L176.498 99.2731L164.436 122.148L173.281 126.812L182.127 131.477L194.189 108.602L185.344 103.938ZM173.281 126.812H163.281V127.031H173.281H183.281V126.812H173.281ZM173.281 127.031L165.791 120.406L160.76 126.093L168.25 132.719L175.74 139.344L180.771 133.657L173.281 127.031ZM168.25 132.719V122.719H168.031V132.719V142.719H168.25V132.719ZM168.031 132.719L159.097 128.227L150.409 145.508L159.344 150L168.278 154.492L176.966 137.21L168.031 132.719ZM159.344 150V140H150.594V150V160H159.344V150ZM192.062 147.312L186.625 155.705L186.652 155.722L186.679 155.739L192.062 147.312ZM188.281 144.188L179.066 140.305L176.562 146.249L180.944 150.982L188.281 144.188ZM191.375 136.844L199.462 130.962L189.039 116.63L182.159 132.961L191.375 136.844ZM194.312 140.062L187.669 147.537L187.703 147.567L187.737 147.597L194.312 140.062ZM197.969 142.5L193.613 151.502L193.672 151.53L193.732 151.558L197.969 142.5ZM207.438 140.25L198.766 135.269L198.726 135.339L198.687 135.409L207.438 140.25ZM207.375 133.781L199.025 139.284L199.055 139.329L199.084 139.373L207.375 133.781ZM204.75 131.344L199.422 139.806L199.457 139.828L199.492 139.85L204.75 131.344ZM200.594 129.375L196.96 138.692L197.054 138.728L197.148 138.762L200.594 129.375ZM194.875 126.312L188.97 134.383L189.025 134.423L189.081 134.463L194.875 126.312ZM190.812 121.844L182.13 126.805L182.143 126.828L182.156 126.85L190.812 121.844ZM190.969 109.344L182.419 104.156L182.398 104.192L182.377 104.227L190.969 109.344ZM195.562 105L190.866 96.1713L190.847 96.1817L190.827 96.1922L195.562 105ZM214.344 108.719L223.587 112.535L226.044 106.582L221.642 101.882L214.344 108.719ZM211.531 115.531L203.573 121.586L214.125 135.455L220.775 119.347L211.531 115.531ZM208.906 112.969L202.906 120.969L202.946 120.998L202.985 121.028L208.906 112.969ZM205.719 111.188L202.035 120.484L202.065 120.496L202.094 120.508L205.719 111.188ZM198.75 120.375L192.114 127.856L192.144 127.882L192.173 127.908L198.75 120.375ZM204.281 123.469L200.68 132.798L200.73 132.817L200.78 132.836L204.281 123.469ZM209.969 126.375L204.376 134.665L204.433 134.703L204.491 134.741L209.969 126.375ZM213.969 144.125L222.528 149.296L222.54 149.277L222.551 149.257L213.969 144.125ZM202.281 150.5V140.5C201.563 140.5 200.848 140.388 200.1 140.138L196.938 149.625L193.775 159.112C196.527 160.029 199.375 160.5 202.281 160.5V150.5ZM196.938 149.625L200.1 140.138C199.103 139.806 198.228 139.385 197.446 138.886L192.062 147.312L186.679 155.739C188.897 157.157 191.272 158.278 193.775 159.112L196.938 149.625ZM192.062 147.312L197.5 138.92C196.617 138.348 196.019 137.826 195.619 137.393L188.281 144.188L180.944 150.982C182.627 152.799 184.55 154.361 186.625 155.705L192.062 147.312ZM188.281 144.188L197.497 148.07L200.591 140.726L191.375 136.844L182.159 132.961L179.066 140.305L188.281 144.188ZM191.375 136.844L183.288 142.725C184.569 144.487 186.04 146.089 187.669 147.537L194.312 140.062L200.956 132.588C200.335 132.036 199.848 131.492 199.462 130.962L191.375 136.844ZM194.312 140.062L187.737 147.597C189.514 149.148 191.473 150.466 193.613 151.502L197.969 142.5L202.324 133.498C201.881 133.284 201.403 132.977 200.888 132.528L194.312 140.062ZM197.969 142.5L193.732 151.558C196.256 152.739 199.008 153.406 201.906 153.406V143.406V133.406C202.002 133.406 202.093 133.418 202.165 133.434C202.235 133.451 202.25 133.463 202.206 133.442L197.969 142.5ZM201.906 143.406V153.406C204.721 153.406 207.597 152.743 210.25 151.187L205.188 142.562L200.125 133.938C200.463 133.74 200.817 133.598 201.158 133.51C201.493 133.424 201.754 133.406 201.906 133.406V143.406ZM205.188 142.562L210.25 151.187C212.766 149.71 214.785 147.627 216.188 145.091L207.438 140.25L198.687 135.409C198.829 135.152 199.032 134.866 199.301 134.589C199.572 134.311 199.858 134.095 200.125 133.938L205.188 142.562ZM207.438 140.25L216.109 145.231C217.603 142.63 218.281 139.798 218.281 136.969H208.281H198.281C198.281 136.791 198.303 136.526 198.385 136.205C198.469 135.88 198.599 135.56 198.766 135.269L207.438 140.25ZM208.281 136.969H218.281C218.281 134.03 217.532 130.958 215.666 128.19L207.375 133.781L199.084 139.373C198.782 138.925 198.567 138.447 198.436 137.985C198.307 137.533 198.281 137.176 198.281 136.969H208.281ZM207.375 133.781L215.725 128.278C214.16 125.904 212.116 124.141 210.008 122.838L204.75 131.344L199.492 139.85C199.676 139.963 199.382 139.825 199.025 139.284L207.375 133.781ZM204.75 131.344L210.078 122.881C208.207 121.703 206.149 120.762 204.04 119.988L200.594 129.375L197.148 138.762C198.33 139.197 199.043 139.568 199.422 139.806L204.75 131.344ZM200.594 129.375L204.227 120.058C202.868 119.528 201.693 118.89 200.669 118.162L194.875 126.312L189.081 134.463C191.515 136.193 194.153 137.597 196.96 138.692L200.594 129.375ZM194.875 126.312L200.78 118.242C200.124 117.762 199.733 117.295 199.469 116.837L190.812 121.844L182.156 126.85C183.892 129.851 186.21 132.363 188.97 134.383L194.875 126.312ZM190.812 121.844L199.495 116.882C199.471 116.841 199.312 116.575 199.312 115.781H189.312H179.312C179.312 119.571 180.154 123.347 182.13 126.805L190.812 121.844ZM189.312 115.781H199.312C199.312 114.907 199.493 114.574 199.561 114.46L190.969 109.344L182.377 104.227C180.236 107.822 179.312 111.781 179.312 115.781H189.312ZM190.969 109.344L199.518 114.531C199.704 114.225 199.908 114.017 200.298 113.808L195.562 105L190.827 96.1922C187.342 98.0662 184.484 100.754 182.419 104.156L190.969 109.344ZM195.562 105L200.259 113.829C200.62 113.637 201.186 113.438 202.188 113.438V103.438V93.4375C198.272 93.4375 194.422 94.28 190.866 96.1713L195.562 105ZM202.188 103.438V113.438C202.971 113.438 203.822 113.594 204.81 114.021L208.781 104.844L212.752 95.666C209.407 94.2187 205.862 93.4375 202.188 93.4375V103.438ZM208.781 104.844L204.81 114.021C205.779 114.441 206.485 114.956 207.045 115.555L214.344 108.719L221.642 101.882C219.12 99.1896 216.117 97.1218 212.752 95.666L208.781 104.844ZM214.344 108.719L205.1 104.903L202.288 111.715L211.531 115.531L220.775 119.347L223.587 112.535L214.344 108.719ZM211.531 115.531L219.49 109.476C218.151 107.717 216.579 106.197 214.827 104.91L208.906 112.969L202.985 121.028C203.275 121.24 203.453 121.429 203.573 121.586L211.531 115.531ZM208.906 112.969L214.906 104.969C213.204 103.692 211.346 102.646 209.343 101.867L205.719 111.188L202.094 120.508C202.341 120.604 202.608 120.745 202.906 120.969L208.906 112.969ZM205.719 111.188L209.402 101.891C207.263 101.043 204.933 100.531 202.469 100.531V110.531V120.531C202.309 120.531 202.183 120.514 202.099 120.497C202.017 120.481 201.994 120.468 202.035 120.484L205.719 111.188ZM202.469 110.531V100.531C198.509 100.531 194.544 101.876 191.406 104.953L198.406 112.094L205.407 119.234C204.988 119.645 204.439 120.013 203.809 120.255C203.197 120.491 202.71 120.531 202.469 120.531V110.531ZM198.406 112.094L191.406 104.953C188.32 107.978 186.812 111.901 186.812 116H196.812H206.812C206.812 116.37 206.745 116.955 206.47 117.629C206.191 118.314 205.792 118.857 205.407 119.234L198.406 112.094ZM196.812 116H186.812C186.812 120.547 188.621 124.757 192.114 127.856L198.75 120.375L205.386 112.894C205.723 113.193 206.136 113.686 206.44 114.373C206.742 115.053 206.812 115.645 206.812 116H196.812ZM198.75 120.375L192.173 127.908C194.671 130.089 197.673 131.637 200.68 132.798L204.281 123.469L207.882 114.14C206.14 113.467 205.454 112.953 205.327 112.842L198.75 120.375ZM204.281 123.469L200.78 132.836C202.146 133.346 203.334 133.962 204.376 134.665L209.969 126.375L215.562 118.085C213.145 116.455 210.541 115.133 207.782 114.102L204.281 123.469ZM209.969 126.375L204.491 134.741C205.048 135.106 205.4 135.488 205.667 135.923L214.188 130.688L222.708 125.452C220.85 122.429 218.39 119.936 215.447 118.009L209.969 126.375ZM214.188 130.688L205.667 135.923C205.627 135.858 205.648 135.864 205.684 136.007C205.723 136.161 205.781 136.485 205.781 137.031H215.781H225.781C225.781 133.111 224.94 129.085 222.708 125.452L214.188 130.688ZM215.781 137.031H205.781C205.781 138.209 205.535 138.744 205.386 138.993L213.969 144.125L222.551 149.257C224.819 145.464 225.781 141.271 225.781 137.031H215.781ZM213.969 144.125L205.41 138.954C205.107 139.455 204.768 139.779 204.268 140.054L209.094 148.812L213.92 157.571C217.503 155.596 220.414 152.795 222.528 149.296L213.969 144.125ZM209.094 148.812L204.268 140.054C203.811 140.306 203.22 140.5 202.281 140.5V150.5V160.5C206.343 160.5 210.293 159.569 213.92 157.571L209.094 148.812ZM231.406 150H221.406V160H231.406V150ZM231.406 131.031H241.406V128.678L240.357 126.572L231.406 131.031ZM217.906 103.938V93.9375H201.751L208.956 108.397L217.906 103.938ZM226.562 103.938L235.75 99.9884L233.149 93.9375H226.562V103.938ZM231.062 114.406L221.875 118.355L221.891 118.391L221.907 118.427L231.062 114.406ZM235.125 123.656L225.969 127.677L228.595 133.656H235.125V123.656ZM235.344 123.656V133.656H241.914L244.522 127.625L235.344 123.656ZM239.344 114.406L230.167 110.434L230.165 110.437L239.344 114.406ZM243.875 103.938V93.9375H237.307L234.698 99.9653L243.875 103.938ZM252.531 103.938L261.473 108.414L268.72 93.9375H252.531V103.938ZM238.969 131.031L230.027 126.555L228.969 128.668V131.031H238.969ZM238.969 150V160H248.969V150H238.969ZM231.406 150H241.406V131.031H231.406H221.406V150H231.406ZM231.406 131.031L240.357 126.572L226.857 99.4778L217.906 103.938L208.956 108.397L222.456 135.491L231.406 131.031ZM217.906 103.938V113.938H226.562V103.938V93.9375H217.906V103.938ZM226.562 103.938L217.375 107.887L221.875 118.355L231.062 114.406L240.25 110.457L235.75 99.9884L226.562 103.938ZM231.062 114.406L221.907 118.427L225.969 127.677L235.125 123.656L244.281 119.635L240.218 110.385L231.062 114.406ZM235.125 123.656V133.656H235.344V123.656V113.656H235.125V123.656ZM235.344 123.656L244.522 127.625L248.522 118.375L239.344 114.406L230.165 110.437L226.165 119.687L235.344 123.656ZM239.344 114.406L248.521 118.378L253.052 107.91L243.875 103.938L234.698 99.9653L230.167 110.434L239.344 114.406ZM243.875 103.938V113.938H252.531V103.938V93.9375H243.875V103.938ZM252.531 103.938L243.589 99.4612L230.027 126.555L238.969 131.031L247.911 135.508L261.473 108.414L252.531 103.938ZM238.969 131.031H228.969V150H238.969H248.969V131.031H238.969ZM238.969 150V140H231.406V150V160H238.969V150Z" fill="white" mask="url(#path-2-outside-1_671_21)"/>
</svg>
